name analog
datacolumns 19
datarows 23
range 0.0 0.011
endheader
time	ground_force_vx	ground_force_vy	ground_force_vz	ground_force_px	ground_force_py	ground_force_pz	l_ground_force_vx	l_ground_force_vy	l_ground_force_vz	l_ground_force_px	l_ground_force_py	l_ground_force_pz	ground_torque_x	ground_torque_y	ground_torque_z	l_ground_torque_x	l_ground_torque_y	l_ground_torque_z
0.0	-0.0	-0.0	-0.0	5.211788654327393	40.45116424560547	-376.0059814453125	3.3474366664886475	-37.57398223876953	-382.87200927734375	-0.0	-0.0	-0.0	-0.0	-0.0	-0.0	103901.8984375	-30665.275390625	-537.865966796875
0.0005	-0.0	-0.0	-0.0	5.148488998413086	41.22747039794922	-378.4651794433594	3.260080099105835	-37.29541778564453	-382.75628662109375	-0.0	-0.0	-0.0	-0.0	-0.0	-0.0	103821.8671875	-30804.279296875	-513.4405517578125
0.001	-0.0	-0.0	-0.0	5.252886772155762	41.596229553222656	-379.4447021484375	3.3027031421661377	-37.51120376586914	-382.26751708984375	-0.0	-0.0	-0.0	-0.0	-0.0	-0.0	103876.640625	-30734.994140625	-462.41644287109375
0.0015	-0.0	-0.0	-0.0	5.478677272796631	41.65481948852539	-380.0661010742188	3.496105670928955	-37.38553237915039	-381.8789978027344	-0.0	-0.0	-0.0	-0.0	-0.0	-0.0	103726.1640625	-30748.078125	-440.9814758300781
0.002	-0.0	-0.0	-0.0	5.225608825683594	41.877716064453125	-381.434326171875	3.371009826660156	-37.09510803222656	-381.3789978027344	-0.0	-0.0	-0.0	-0.0	-0.0	-0.0	103572.8125	-30838.869140625	-463.73529052734375
0.0025	-0.0	-0.0	-0.0	5.3837666511535645	42.19861602783203	-382.6273498535156	3.517350435256958	-36.98421096801758	-380.9463195800781	-0.0	-0.0	-0.0	-0.0	-0.0	-0.0	103652.2734375	-30664.01953125	-439.4197387695313
0.003	-0.0	-0.0	-0.0	5.435145854949951	42.68008804321289	-382.8472900390625	3.459775447845459	-37.10730743408203	-380.5751647949219	-0.0	-0.0	-0.0	-0.0	-0.0	-0.0	103399.796875	-30775.974609375	-424.4676208496094
0.0035	-0.0	-0.0	-0.0	5.611555099487305	42.86552810668945	-384.0256652832031	3.4404830932617188	-36.86223602294922	-379.1170043945313	-0.0	-0.0	-0.0	-0.0	-0.0	-0.0	103160.140625	-30804.390625	-383.9481506347656
0.004	-0.0	-0.0	-0.0	5.23847246170044	42.7707633972168	-382.540771484375	3.700866222381592	-36.56517791748047	-379.0769958496094	-0.0	-0.0	-0.0	-0.0	-0.0	-0.0	103061.8828125	-30604.91015625	-481.2801208496094
0.0045000000000000005	-0.0	-0.0	-0.0	5.423469066619873	43.215293884277344	-386.0745239257813	3.373847961425781	-36.37886428833008	-378.8048095703125	-0.0	-0.0	-0.0	-0.0	-0.0	-0.0	102878.9765625	-30691.931640625	-477.2132873535156
0.005	-0.0	-0.0	-0.0	5.442255973815918	43.966644287109375	-386.40325927734375	3.4215779304504395	-36.24966430664063	-378.2060546875	-0.0	-0.0	-0.0	-0.0	-0.0	-0.0	102685.578125	-30612.546875	-549.2163696289062
0.0055	-0.0	-0.0	-0.0	5.155184268951416	44.12601089477539	-387.1105346679688	3.3647003173828125	-35.817588806152344	-378.5429382324219	-0.0	-0.0	-0.0	-0.0	-0.0	-0.0	102624.078125	-30501.431640625	-598.8903198242188
0.006	-0.0	-0.0	-0.0	5.364768981933594	44.36174392700195	-387.9931335449219	3.535125732421875	-36.085594177246094	-376.734619140625	-0.0	-0.0	-0.0	-0.0	-0.0	-0.0	102317.59375	-30307.421875	-565.8190307617188
0.006500000000000001	-0.0	-0.0	-0.0	4.891249656677246	44.49541473388672	-386.9225769042969	3.4129631519317627	-35.580780029296875	-376.3988952636719	-0.0	-0.0	-0.0	-0.0	-0.0	-0.0	102098.28125	-30145.8203125	-556.4274291992188
0.007	-0.0	-0.0	-0.0	5.07938289642334	45.029396057128906	-389.27777099609375	3.4414217472076416	-35.34859848022461	-374.21868896484375	-0.0	-0.0	-0.0	-0.0	-0.0	-0.0	101727.3515625	-30030.912109375	-695.1975708007812
0.0075	-0.0	-0.0	-0.0	4.817794799804688	45.13540649414063	-388.648681640625	3.21273136138916	-35.237300872802734	-373.6814575195313	-0.0	-0.0	-0.0	-0.0	-0.0	-0.0	101420.3359375	-29922.06640625	-716.9470825195312
0.008	-0.0	-0.0	-0.0	4.831593990325928	45.54356384277344	-388.5941467285156	3.0665042400360107	-34.698509216308594	-371.10107421875	-0.0	-0.0	-0.0	-0.0	-0.0	-0.0	101131.5703125	-29993.58203125	-803.5608520507812
0.0085	-0.0	-0.0	-0.0	4.735373973846436	45.47211837768555	-390.0442504882813	3.1011734008789062	-34.53590393066406	-371.3782043457031	-0.0	-0.0	-0.0	-0.0	-0.0	-0.0	100693.390625	-29760.3203125	-778.3563232421875
0.009000000000000001	-0.0	-0.0	-0.0	4.88135290145874	45.46092987060547	-389.2512512207031	3.0027809143066406	-34.44371032714844	-369.4554443359375	-0.0	-0.0	-0.0	-0.0	-0.0	-0.0	100471.21875	-29462.287109375	-854.5634765625
0.0095	-0.0	-0.0	-0.0	4.683516979217529	45.47835540771485	-389.8992004394531	2.6960487365722656	-34.13160705566406	-369.3453063964844	-0.0	-0.0	-0.0	-0.0	-0.0	-0.0	100196.9921875	-29422.408203125	-878.9263916015625
0.01	-0.0	-0.0	-0.0	4.538080215454102	45.8634147644043	-391.3846130371094	2.6498520374298096	-34.026695251464844	-366.9583740234375	-0.0	-0.0	-0.0	-0.0	-0.0	-0.0	100008.671875	-29263.8671875	-896.6793823242188
0.0105	-0.0	-0.0	-0.0	4.110505104064941	45.99131774902344	-389.7910461425781	2.594851016998291	-33.66353988647461	-366.96044921875	-0.0	-0.0	-0.0	-0.0	-0.0	-0.0	99789.734375	-29138.08203125	-977.8153686523438
0.011	-0.0	-0.0	-0.0	4.030646800994873	45.92393112182617	-389.64788818359375	2.56947660446167	-33.330345153808594	-366.2279052734375	-0.0	-0.0	-0.0	-0.0	-0.0	-0.0	99379.7578125	-29001.767578125	-1042.148681640625
